<?xml version="1.0" standalone="no"?>
<!DOCTYPE svg PUBLIC "-//W3C//DTD SVG 20010904//EN"
 "http://www.w3.org/TR/2001/REC-SVG-20010904/DTD/svg10.dtd">
<svg version="1.0" xmlns="http://www.w3.org/2000/svg"
 width="500.000000pt" height="500.000000pt" viewBox="0 0 500.000000 500.000000"
 preserveAspectRatio="xMidYMid meet">

<g transform="translate(0.000000,500.000000) scale(0.100000,-0.100000)"
fill="#000000" stroke="none">
<path d="M185 4815 l-25 -24 0 -2134 c0 -2087 0 -2135 19 -2158 l19 -24 445
-3 444 -3 7 71 c4 38 4 74 1 80 -4 6 -146 10 -396 10 l-389 0 2 2028 3 2027
214 3 215 2 161 -160 161 -160 1027 0 1027 0 0 -115 0 -115 80 0 81 0 -3 331
-3 331 -24 19 c-23 19 -62 19 -1533 19 l-1509 0 -24 -25z m1260 -205 l80 -80
-200 0 -200 0 -73 80 -73 80 193 0 193 0 80 -80z m550 0 l80 -80 -160 0 -160
0 -80 80 -80 80 160 0 160 0 80 -80z m1125 0 l0 -80 -408 0 -407 0 -80 80 -80
80 488 0 487 0 0 -80z"/>
<path d="M3525 4050 c-87 -12 -207 -44 -311 -83 -271 -101 -555 -398 -652
-683 -47 -136 -64 -259 -59 -414 8 -266 85 -489 241 -697 105 -140 299 -290
456 -353 41 -17 85 -35 97 -40 21 -9 21 -10 6 -42 -27 -54 -28 -127 -3 -186
22 -52 71 -104 116 -124 l24 -11 0 -531 c1 -417 4 -539 14 -569 56 -155 242
-205 367 -99 81 70 79 47 79 658 l0 541 49 30 c59 37 99 101 107 169 5 45 -2
78 -31 147 -5 11 -3 17 6 17 30 0 213 91 296 146 358 238 560 684 502 1111
-67 502 -428 891 -924 998 -86 18 -298 27 -380 15z m360 -494 c233 -75 409
-263 465 -497 90 -375 -128 -744 -500 -845 -99 -28 -273 -25 -370 5 -129 39
-206 86 -300 180 -94 95 -142 175 -181 301 -33 107 -33 274 0 380 40 130 89
212 178 303 97 98 210 161 346 192 96 22 262 13 362 -19z m-36 -1847 c53 -19
68 -77 31 -117 -20 -21 -28 -22 -210 -22 l-189 0 -20 26 c-12 15 -21 34 -21
43 0 23 28 61 54 71 31 13 317 12 355 -1z m-99 -694 l0 -385 -75 0 -75 0 0
385 0 385 75 0 75 0 0 -385z m-2 -602 c-6 -64 -30 -93 -79 -93 -45 0 -69 34
-69 97 l0 53 76 0 76 0 -4 -57z"/>
<path d="M2710 3998 c-113 -26 -488 -115 -835 -198 -346 -82 -767 -181 -935
-220 -188 -43 -315 -78 -330 -89 -43 -32 -34 -87 114 -706 75 -313 193 -810
262 -1103 114 -487 220 -929 304 -1267 34 -136 55 -175 96 -175 21 0 285 61
1014 233 173 41 333 78 355 81 79 14 430 96 446 105 9 5 33 13 53 16 41 8 40
6 25 92 -7 37 -16 63 -23 63 -13 0 -554 -126 -1355 -316 -244 -58 -445 -103
-447 -101 -4 3 -265 1098 -458 1922 -58 248 -137 580 -175 740 -43 179 -66
292 -60 296 6 3 189 48 407 99 681 159 1775 420 1780 425 6 5 -17 128 -26 141
-5 7 -83 -7 -212 -38z"/>
<path d="M1711 3359 c-387 -92 -632 -155 -643 -166 -10 -9 -18 -30 -18 -49 0
-38 135 -619 152 -651 26 -52 30 -52 529 66 255 60 498 117 539 126 41 10 78
20 82 24 11 9 -13 149 -26 154 -6 2 -112 -20 -236 -49 -378 -90 -734 -175
-747 -179 -10 -3 -81 266 -109 410 l-6 31 584 138 c321 77 587 143 592 147 16
14 -33 149 -53 148 -9 0 -297 -67 -640 -150z"/>
<path d="M2175 2425 c-121 -29 -273 -65 -338 -80 -88 -20 -117 -31 -113 -41 3
-7 11 -40 18 -74 6 -33 17 -60 23 -60 11 0 668 151 673 155 4 4 -30 139 -37
146 -3 4 -105 -17 -226 -46z"/>
<path d="M1483 2263 c-35 -8 -63 -20 -63 -26 1 -21 28 -129 35 -135 6 -6 122
15 138 25 17 10 -18 153 -36 152 -7 0 -40 -7 -74 -16z"/>
<path d="M1930 2048 c-322 -77 -587 -142 -589 -144 -2 -2 4 -35 14 -74 13 -51
22 -70 34 -70 9 0 54 9 101 21 47 11 247 58 445 104 198 46 428 100 511 120
l151 36 -16 72 c-15 65 -19 72 -41 74 -14 0 -288 -62 -610 -139z"/>
<path d="M2555 1874 c-619 -145 -1131 -268 -1138 -274 -7 -6 19 -136 29 -149
4 -5 1367 320 1376 328 7 6 -20 131 -31 142 -3 4 -109 -17 -236 -47z"/>
<path d="M2880 1629 c-135 -32 -503 -120 -819 -194 -315 -74 -575 -136 -578
-138 -2 -2 4 -36 14 -76 12 -52 21 -71 33 -71 9 0 194 42 411 94 217 52 570
136 784 186 485 113 468 108 462 125 -3 7 -11 40 -18 74 -8 45 -16 61 -28 60
-9 0 -126 -27 -261 -60z"/>
<path d="M2630 1249 c-157 -38 -460 -110 -675 -160 -214 -50 -393 -94 -397
-97 -4 -4 1 -39 11 -77 15 -58 21 -70 37 -68 10 1 192 43 404 93 212 50 511
120 665 156 154 37 281 67 282 68 3 2 -35 147 -39 150 -2 2 -131 -28 -288 -65z"/>
</g>
</svg>
