<svg xmlns="http://www.w3.org/2000/svg" width="32.353" height="32.354" viewBox="0 0 32.353 32.354"><defs><style>.a{fill:#0077b5;}.b{fill:#fff;}</style></defs><g transform="translate(0 0)"><g transform="translate(0)"><path class="a" d="M16.176,0A16.177,16.177,0,1,0,32.353,16.177,16.176,16.176,0,0,0,16.176,0Z"/></g></g><g transform="translate(9.777 9.153)"><path class="b" d="M14.965,15.184H11.991V10.146a1.266,1.266,0,0,0-.542-1,1.788,1.788,0,0,0-1.137-.437,1.217,1.217,0,0,0-.962.42,1.488,1.488,0,0,0-.367,1.015v5.038H6.009V6.228H8.982v1.5a2.472,2.472,0,0,1,1.154-.962A3.578,3.578,0,0,1,11.606,6.4a3.21,3.21,0,0,1,2.379,1,3.256,3.256,0,0,1,.98,2.361Zm-10.46,0H1.531V6.228H4.5ZM3.035,1.75a1.411,1.411,0,0,1,1.032.437A1.431,1.431,0,0,1,4.5,3.237a1.431,1.431,0,0,1-.437,1.05,1.431,1.431,0,0,1-1.049.437,1.431,1.431,0,0,1-1.049-.437,1.431,1.431,0,0,1-.437-1.05,1.431,1.431,0,0,1,.437-1.05A1.452,1.452,0,0,1,3.035,1.75Z" transform="translate(-1.531 -1.75)"/></g></svg>