<svg xmlns="http://www.w3.org/2000/svg" width="720" height="243" viewBox="0 0 720 243"><defs><style>.a{fill:#e4e4e4;}.b,.c{fill:#33b485;}.b{font-size:69px;font-family:Montserrat-Bold, Montserrat;font-weight:700;}</style></defs><g transform="translate(-338 -19)"><g transform="translate(338 19)"><path class="a" d="M37.856,104.337c-11.4,0-21.022-3.036-27.826-8.781a27.88,27.88,0,0,1-7.451-9.731A29.031,29.031,0,0,1,0,73.639,29.629,29.629,0,0,1,2.455,61.353a24.86,24.86,0,0,1,7.716-9.584c7.362-5.608,18.578-8.451,33.335-8.451H66.859c0-6.5-2-11.506-5.947-14.879s-9.8-5.084-17.406-5.084c-10.7,0-21.885,3.608-29.192,9.417L3.767,12.242A55.3,55.3,0,0,1,13,6.992a73.172,73.172,0,0,1,10.7-3.837A90.592,90.592,0,0,1,47.461,0C63.132,0,75.234,3.7,83.432,10.994a35.438,35.438,0,0,1,9.528,14.034,56.134,56.134,0,0,1,3.278,19.984v4.409a28.252,28.252,0,0,0,0,53.174v.235h-27.5V90.212A26.177,26.177,0,0,1,56.83,100.735C51.624,103.125,45.24,104.337,37.856,104.337Zm8.852-43.881c-6.445,0-11.221,1.141-14.2,3.39a10.023,10.023,0,0,0-3.884,8.475,10.719,10.719,0,0,0,4.4,8.875c2.929,2.2,7.137,3.367,12.171,3.367,10.554,0,18.449-5.011,21.658-13.748V60.456Z" transform="translate(557.869 36.954)"/><path class="a" d="M85.538,59.247a19.8,19.8,0,0,1-11.865,3.767c-7.91,0-12.618-4.708-12.618-13.372V-32.324h40.507v-22.6H-9.408v22.6H31.674V50.019c0,24.107,13.937,36.348,37.855,36.348,9.04,0,17.892-2.072,23.918-6.4ZM152.773-17.97c-16.2,0-32.582,4.332-43.693,12.242L119.626,14.8c7.345-5.838,18.457-9.417,29.192-9.417,15.82,0,23.353,7.345,23.353,19.963H148.818c-30.887,0-43.505,12.43-43.505,30.322,0,17.515,14.125,30.7,37.855,30.7,14.878,0,25.425-4.9,30.887-14.125V84.86h27.5V27.042C201.551-3.657,183.659-17.97,152.773-17.97Zm-2.26,84.562c-10.358,0-16.573-4.9-16.573-12.242,0-6.78,4.332-11.865,18.08-11.865h20.152V52.844C168.781,62.072,160.306,66.592,150.513,66.592Zm136.919-7.345a19.8,19.8,0,0,1-11.865,3.767c-7.91,0-12.618-4.708-12.618-13.372V8.4H316.18V-14.2H262.948V-38.875h-29.38V-14.2H217.936V8.4h15.632V50.019c0,24.107,13.937,36.348,37.855,36.348,9.04,0,17.892-2.072,23.918-6.4ZM375.383-17.97c-12.995,0-24.295,4.143-32.205,12.053V-54.883H313.8V84.86h29.38v-50.1c0-18.645,10.17-27.308,24.3-27.308C380.468,7.455,388,14.989,388,31.374V84.86h29.38V26.854C417.382-4.033,399.3-17.97,375.383-17.97Zm140.874,1.507L487.63,52.279,459.192-16.463H428.87L472.752,85.614l-.377.942c-3.955,9.04-13.94,12.854-24.12,13.533-8.144-.17-19.067-2.543-29.3-13.295a21.539,21.539,0,0,1-1.569-1.933H388c1.208,6.914,2.056,8.78,7.656,16.925,19.184,23.056,49.593,20.7,58.366,20.7,17.815-2.545,34.925-6.926,44.718-31.409L544.507-16.463Z" transform="translate(9.408 54.924)"/><text class="b" transform="translate(522 226)"><tspan x="0" y="0">Earth</tspan></text><g transform="translate(640.001 85.967)"><g transform="translate(0 0)"><path class="c" d="M54.193,26.819c-.008-.793-.048-1.579-.123-2.354a26.935,26.935,0,0,0-1.793-7.379c-.069-.173-.133-.348-.206-.518a27.131,27.131,0,0,0-5.083-7.853c-.139-.149-.281-.3-.422-.441-.4-.416-.811-.821-1.237-1.21a27.044,27.044,0,0,0-36.576.115,27.421,27.421,0,0,0-3.1,3.383A27.087,27.087,0,1,0,51.229,39.41a26.843,26.843,0,0,0,2.213-5.968c.128-.532.239-1.066.334-1.606A27.1,27.1,0,0,0,54.2,27.1C54.2,27.005,54.194,26.913,54.193,26.819Z" transform="translate(0 0)"/></g></g></g></g></svg>