<svg xmlns="http://www.w3.org/2000/svg" width="37.453" height="37.453" viewBox="0 0 37.453 37.453"><defs><style>.a{fill:#fff;}</style></defs><g transform="translate(0 -0.001)"><g transform="translate(29.334 29.334)"><path class="a" d="M404.735,400.995a.732.732,0,0,0-.732.732A2.278,2.278,0,0,1,401.728,404a.732.732,0,1,0,0,1.463,3.743,3.743,0,0,0,3.739-3.739A.732.732,0,0,0,404.735,400.995Z" transform="translate(-400.996 -400.995)"/></g><g transform="translate(29.334 29.334)"><path class="a" d="M408.385,400.995a.732.732,0,0,0-.732.732,5.932,5.932,0,0,1-5.925,5.925.732.732,0,1,0,0,1.463,7.4,7.4,0,0,0,7.388-7.388A.732.732,0,0,0,408.385,400.995Z" transform="translate(-400.997 -400.995)"/></g><g transform="translate(11.933 13.933)"><path class="a" d="M168.1,194.395l-3.723-3.723a.732.732,0,1,0-1.035,1.035l3.723,3.723a.732.732,0,0,0,1.035-1.035Z" transform="translate(-163.125 -190.457)"/></g><g transform="translate(17.517 19.518)"><path class="a" d="M240.711,267.016a.732.732,0,1,0,.214.518A.734.734,0,0,0,240.711,267.016Z" transform="translate(-239.462 -266.802)"/></g><g transform="translate(0 0.001)"><g transform="translate(0 0)"><path class="a" d="M22.723,13.678a2.195,2.195,0,0,0,3.1,0l6.621-6.621a2.195,2.195,0,0,0,0-3.1L29.138.643a2.2,2.2,0,0,0-3.1,0L19.413,7.264a2.195,2.195,0,0,0,0,3.1l1.138,1.138-1.018,1.018L15.57,8.56a3.564,3.564,0,0,0-5.041,0L8.559,10.53a3.564,3.564,0,0,0,0,5.04l3.963,3.963L11.5,20.552l-1.138-1.138a2.2,2.2,0,0,0-3.1,0L.642,26.035a2.2,2.2,0,0,0,0,3.1l3.311,3.311a2.2,2.2,0,0,0,3.1,0l6.621-6.621a2.2,2.2,0,0,0,0-3.1l-1.138-1.138,1.018-1.018,3.963,3.963a3.541,3.541,0,0,0,2.52,1.044,3.593,3.593,0,0,0,.781-.086A6.422,6.422,0,0,0,22.5,31.6a.731.731,0,0,0,1.035,0l3.512-3.512.731.731a.732.732,0,0,0,1.035-1.035l-.732-.731,3.5-3.5a.732.732,0,0,0,0-1.035,6.379,6.379,0,0,0-4.54-1.881,6.465,6.465,0,0,0-1.557.189,3.59,3.59,0,0,0,.088-.787,3.541,3.541,0,0,0-1.044-2.52l-3.963-3.963,1.018-1.018Zm2.069-1.035a.731.731,0,0,1-1.035,0L22.62,11.505l1.862-1.862L26.138,11.3Zm2.379-2.379L25.517,8.609l1.862-1.862L29.034,8.4Zm4.242-5.276a.732.732,0,0,1,0,1.035L30.069,7.367,28.414,5.712,30.276,3.85Zm-4.345-3.31a.732.732,0,0,1,1.035,0l1.138,1.138L27.379,4.677,25.724,3.022ZM24.689,4.057l1.655,1.655L24.482,7.574,22.827,5.919ZM8.3,20.449a.732.732,0,0,1,1.035,0l1.138,1.138L8.608,23.449,6.953,21.793ZM5.918,22.828l1.655,1.655L5.711,26.345,4.056,24.69ZM1.676,28.1a.732.732,0,0,1,0-1.034l1.345-1.345L4.677,27.38,2.814,29.242Zm4.345,3.311a.732.732,0,0,1-1.035,0L3.849,30.277l1.862-1.862L7.367,30.07ZM8.4,29.035,6.746,27.38l1.862-1.862,1.655,1.655Zm4.242-5.276a.732.732,0,0,1,0,1.034L11.3,26.138,9.642,24.483,11.5,22.621Zm14.4-1.657a4.92,4.92,0,0,1,2.95.972L23.06,30.01A4.958,4.958,0,0,1,27.045,22.1ZM23.5,18.556a2.1,2.1,0,0,1,0,2.971L21.526,23.5a2.1,2.1,0,0,1-2.971,0L9.593,14.536a2.1,2.1,0,0,1,0-2.971l1.971-1.971a2.1,2.1,0,0,1,2.971,0l4.481,4.481h0ZM20.448,9.333a.731.731,0,0,1,0-1.034l1.345-1.345,1.655,1.655-1.862,1.862Z" transform="translate(0 -0.001)"/></g></g><g transform="translate(29.233 29.234)"><path class="a" d="M400.865,399.839a.732.732,0,1,0,.214.518A.738.738,0,0,0,400.865,399.839Z" transform="translate(-399.616 -399.625)"/></g></g></svg>