<svg xmlns="http://www.w3.org/2000/svg" width="32.354" height="32.354" viewBox="0 0 32.354 32.354"><defs><style>.a{fill:#50abee;}.b{fill:#fff;}</style></defs><g transform="translate(0 0)"><g transform="translate(0 0)"><path class="a" d="M2466.176,210.022m0-2.022a16.177,16.177,0,1,0,16.178,16.177A16.176,16.176,0,0,0,2466.176,208Z" transform="translate(-2450 -208)"/></g></g><path class="b" d="M2307.139,216.869a3.32,3.32,0,0,0-2.236,3.339l.033.568-.573-.07a9.332,9.332,0,0,1-5.46-2.69l-.756-.754-.195.556a3.351,3.351,0,0,0,.711,3.433c.46.487.356.556-.435.267a1.35,1.35,0,0,0-.54-.127,4.154,4.154,0,0,0,.414,1.554,3.7,3.7,0,0,0,1.571,1.485l.562.267-.665.01c-.643,0-.666.011-.6.256a3.465,3.465,0,0,0,2.144,1.9l.712.243-.62.371a6.421,6.421,0,0,1-3.075.858,3.362,3.362,0,0,0-.941.093,8.786,8.786,0,0,0,2.214,1.02,9.678,9.678,0,0,0,7.524-.858,10.071,10.071,0,0,0,3.819-4.5,11.926,11.926,0,0,0,.781-3.478c0-.534.035-.6.676-1.24a7.574,7.574,0,0,0,.8-.893c.117-.221.1-.221-.48-.024-.975.348-1.113.3-.631-.22a3.381,3.381,0,0,0,.78-1.241c0-.034-.172.024-.367.127a6.315,6.315,0,0,1-1.009.394l-.62.2-.562-.384a4.656,4.656,0,0,0-.975-.51A3.915,3.915,0,0,0,2307.139,216.869Z" transform="translate(-2288.942 -207.52)"/></svg>